<svg xmlns="http://www.w3.org/2000/svg" version="1.1" xmlns:xlink="http://www.w3.org/1999/xlink" xmlns:svgjs="http://svgjs.dev/svgjs" width="1500" height="1500" viewBox="0 0 1500 1500"><rect width="1500" height="1500" fill="#ffffff"></rect><g transform="matrix(0.6666666666666666,0,0,0.6666666666666666,249.39436519522388,657.6338786481446)"><svg viewBox="0 0 396 73" data-background-color="#ffffff" preserveAspectRatio="xMidYMid meet" height="276" width="1500" xmlns="http://www.w3.org/2000/svg" xmlns:xlink="http://www.w3.org/1999/xlink"><g id="tight-bounds" transform="matrix(1,0,0,1,0.24008861730862918,0.1454194922170018)"><svg viewBox="0 0 395.52 72.70932584101423" height="72.70932584101423" width="395.52"><g><svg viewBox="0 0 395.52 72.70932584101423" height="72.70932584101423" width="395.52"><g><svg viewBox="0 0 395.52 72.70932584101423" height="72.70932584101423" width="395.52"><g id="textblocktransform"><svg viewBox="0 0 395.52 72.70932584101423" height="72.70932584101423" width="395.52" id="textblock"><g><svg viewBox="0 0 395.52 72.70932584101423" height="72.70932584101423" width="395.52"><path d="M394.594 15.595C392.735 8.048 387.435 5.949 387.435 5.949 371.165-1.824 350.86-0.149 332.619 0.968 300.414 1.014 268.339 2.674 236.208 3.565 168.767 3.7 100.749 1.466 33.643 6.976 27.339 8.666-6.54 7.308 1.121 16.561 3.129 20.41 10.456 24.682 10.232 28.214 11.236 28.833 12.631 27.414 13.226 28.304 15.309 30.704 18.711 29.572 21.501 30.991 17.614 34.78 20.403 37.934 23.062 41.24 18.377 42.101 12.371 41.693 9.675 44.546 9.396 46.614 7.89 46.221 6.235 46.131 5.026 46.07 2.59 46.297 2.999 46.946 4.394 49.165-1.594 50.448 2.162 52.621-0.422 54.976 3.948 57.014 3.353 59.565 3.278 60.078 3.687 60.516 4.338 60.636 7.22 61.286 3.018 62.553 3.464 63.927 33.029 73.316 65.104 66.825 95.394 71.142 103.259 68.123 97.346 72.214 100.489 71.58 102.943 70.84 104.728 73.904 107.499 72.169 107.927 71.67 107.276 70.493 108.8 70.72 109.6 70.84 110.307 70.81 110.418 70.116 110.586 69.074 109.117 69.723 108.726 69.18 112.947 66.433 111.906 72.969 115.866 72.697 115.68 71.897 114.528 70.75 116.889 70.901 119.232 69.753 119.306 68.803 121.389 71.384 121.463 71.942 121.835 72.335 122.43 72.606 128.938 69.799 135.409 73.603 142.233 72.335 146.417 70.946 150.433 73.089 154.672 72.561 156.16 72.138 157.666 71.384 159.098 72.652 176.632 72.923 195.319 71.791 211.943 72.697 256.364 71.006 303.836 73.391 350.674 71.157 361.719 70.297 373.192 69.074 383.958 68.093 383.958 68.093 392.679 65.406 392.679 53.331S394.538 42.765 394.817 33.15C395.096 23.534 396.398 23.142 394.538 15.595Z" opacity="1" fill="#88c8bc" data-fill-palette-color="tertiary"></path><g transform="matrix(1,0,0,1,55.76832,26.230666666666668)"><svg width="283.98335999999995" viewBox="0 -37.99 691.26 49.290000000000006" height="20.247992507680895" data-palette-color="#ffffff"><path d="M0-25.9L0-25.9Q0-28.76 1.57-30.76 3.15-32.76 5.88-34.05 8.62-35.33 12.26-35.91 15.89-36.5 20.04-36.5L20.04-36.5Q22.02-36.5 23.9-36.46 25.78-36.43 27.33-36.35 28.88-36.28 30-36.18 31.13-36.08 31.64-35.96L31.64-35.96Q32.13-35.84 32.42-35.69 32.71-35.55 32.86-35.35 33.01-35.16 33.06-34.9 33.11-34.64 33.11-34.3L33.11-34.3Q33.11-34.01 33.03-33.65 32.96-33.3 32.81-33 32.67-32.69 32.45-32.47 32.23-32.25 31.91-32.25L31.91-32.25Q31.71-32.25 31.48-32.42 31.25-32.59 30.82-32.86 30.4-33.13 29.68-33.42 28.96-33.72 27.75-33.98 26.54-34.25 24.74-34.42 22.95-34.59 20.41-34.59L20.41-34.59 20.41-18.95 30.54-18.95 30.54-16.8 20.41-16.8 20.41-7.25Q20.41-6.1 20.75-5.29 21.09-4.47 21.73-3.93 22.36-3.39 23.25-3.15 24.15-2.91 25.24-2.91L25.24-2.91Q26.49-2.91 27.73-3.16 28.98-3.42 30.09-3.81 31.2-4.2 32.12-4.69 33.03-5.18 33.59-5.64L33.59-5.64 34.55-4.59Q33.94-4.1 32.91-3.26 31.88-2.42 30.41-1.61 28.93-0.81 26.97-0.21 25 0.39 22.51 0.39L22.51 0.39Q21.68 0.39 20.62 0.31 19.56 0.22 18.43-0.04 17.31-0.29 16.22-0.79 15.14-1.29 14.29-2.12 13.45-2.95 12.93-4.16 12.4-5.37 12.4-7.06L12.4-7.06 12.4-16.8 8.59-16.8 8.59-18.95 12.4-18.95 12.4-34.3Q11.62-34.23 10.61-34.02 9.59-33.81 8.53-33.44 7.47-33.06 6.45-32.54 5.42-32.03 4.61-31.35 3.81-30.66 3.31-29.82 2.81-28.98 2.81-28L2.81-28Q2.81-27.22 3.02-26.76 3.22-26.29 3.49-26.06 3.76-25.83 4.04-25.77 4.32-25.71 4.44-25.71L4.44-25.71Q5.05-25.71 5.44-25.92 5.83-26.12 6.15-26.35 6.47-26.59 6.75-26.79 7.03-27 7.4-27L7.4-27Q7.69-27 8.02-26.87 8.35-26.73 8.63-26.44 8.91-26.15 9.11-25.67 9.3-25.2 9.3-24.51L9.3-24.51Q9.3-23.54 8.92-22.81 8.54-22.09 7.95-21.63 7.35-21.17 6.58-20.94 5.81-20.7 5.05-20.7L5.05-20.7Q3.88-20.7 2.94-21.11 2-21.51 1.34-22.22 0.68-22.92 0.34-23.86 0-24.8 0-25.9ZM37.03-9.74L37.03-15.65 49.53-15.65 49.53-9.74 37.03-9.74ZM70.6-16.89L70.6-16.89Q69.84-16.89 69.33-17.13 68.82-17.36 68.5-17.75 68.18-18.14 68.04-18.62 67.89-19.09 67.89-19.6L67.89-19.6Q67.89-20.26 67.98-20.87 68.06-21.48 68-21.97 67.94-22.46 67.62-22.75 67.3-23.05 66.5-23.05L66.5-23.05Q65.64-23.05 64.69-22.56 63.74-22.07 62.96-21.02 62.18-19.97 61.66-18.32 61.15-16.67 61.15-14.36L61.15-14.36Q61.15-11.79 61.63-9.68 62.1-7.57 63.06-6.08 64.01-4.59 65.42-3.77 66.84-2.95 68.75-2.95L68.75-2.95Q69.6-2.95 70.37-3.15 71.14-3.34 71.82-3.69 72.5-4.03 73.13-4.48 73.75-4.93 74.34-5.44L74.34-5.44 74.95-4.86Q74.38-4.1 73.51-3.2 72.63-2.29 71.38-1.5 70.14-0.71 68.48-0.18 66.82 0.34 64.69 0.34L64.69 0.34Q62.57 0.34 60.55-0.48 58.54-1.29 56.98-2.86 55.41-4.42 54.47-6.65 53.54-8.89 53.54-11.74L53.54-11.74Q53.54-13.96 54.1-15.83 54.66-17.7 55.62-19.21 56.59-20.73 57.87-21.88 59.15-23.02 60.57-23.79 61.98-24.56 63.46-24.95 64.94-25.34 66.3-25.34L66.3-25.34Q68.11-25.34 69.45-24.93 70.8-24.51 71.69-23.83 72.58-23.14 73.02-22.25 73.46-21.36 73.46-20.41L73.46-20.41Q73.46-19.7 73.27-19.06 73.09-18.41 72.74-17.93 72.38-17.46 71.85-17.18 71.31-16.89 70.6-16.89ZM76.68-12.5L76.68-12.5Q76.68-15.7 77.6-18.1 78.53-20.51 80.08-22.12 81.63-23.73 83.68-24.54 85.73-25.34 87.98-25.34L87.98-25.34Q90.23-25.34 92.28-24.6 94.33-23.85 95.88-22.31 97.43-20.78 98.36-18.42 99.28-16.06 99.28-12.84L99.28-12.84Q99.28-9.64 98.36-7.18 97.43-4.71 95.88-3.03 94.33-1.34 92.28-0.48 90.23 0.39 87.98 0.39L87.98 0.39Q85.73 0.39 83.68-0.43 81.63-1.25 80.08-2.86 78.53-4.47 77.6-6.88 76.68-9.3 76.68-12.5ZM91.69-12.74L91.69-12.74Q91.69-14.7 91.56-16.52 91.42-18.33 91.03-19.75 90.64-21.17 89.91-22.01 89.18-22.85 87.98-22.85L87.98-22.85Q86.78-22.85 86.05-21.96 85.32-21.07 84.93-19.62 84.54-18.16 84.42-16.31 84.29-14.45 84.29-12.5L84.29-12.5Q84.29-10.55 84.42-8.68 84.54-6.81 84.93-5.35 85.32-3.88 86.05-2.99 86.78-2.1 87.98-2.1L87.98-2.1Q89.18-2.1 89.91-3.03 90.64-3.96 91.03-5.47 91.42-6.98 91.56-8.89 91.69-10.79 91.69-12.74ZM124.7-18.51L124.7-2.15Q124.7-1.83 124.6-1.39 124.5-0.95 124.12-0.56 123.74-0.17 122.99 0.11 122.23 0.39 120.94 0.39L120.94 0.39Q119.64 0.39 118.9 0.09 118.15-0.22 117.78-0.63 117.4-1.05 117.3-1.49 117.2-1.93 117.2-2.2L117.2-2.2 117.2-19.46Q117.2-19.8 117.1-20.15 117.01-20.51 116.81-20.8 116.62-21.09 116.32-21.28 116.03-21.46 115.64-21.46L115.64-21.46Q114.98-21.46 114.35-21.08 113.71-20.7 113.16-20.21 112.61-19.73 112.21-19.24 111.81-18.75 111.64-18.51L111.64-18.51 111.64-2.15Q111.64-1.83 111.54-1.39 111.44-0.95 111.06-0.56 110.68-0.17 109.94 0.11 109.19 0.39 107.9 0.39L107.9 0.39Q106.61 0.39 105.86 0.09 105.12-0.22 104.73-0.63 104.34-1.05 104.24-1.49 104.14-1.93 104.14-2.2L104.14-2.2 104.14-21.04Q104.14-21.75 103.81-22.28 103.48-22.8 102.7-22.8L102.7-22.8Q102.28-22.8 101.99-22.66 101.7-22.51 101.36-22.24L101.36-22.24 100.84-22.85Q101.41-23.32 102.1-23.77 102.8-24.22 103.6-24.56 104.41-24.9 105.34-25.12 106.26-25.34 107.29-25.34L107.29-25.34Q108.88-25.34 109.76-24.82 110.63-24.29 111.05-23.56 111.46-22.83 111.55-22.03 111.64-21.24 111.64-20.7L111.64-20.7Q112.78-22 114.1-23.02L114.1-23.02Q114.64-23.46 115.29-23.88 115.93-24.29 116.62-24.62 117.3-24.95 118.03-25.15 118.76-25.34 119.5-25.34L119.5-25.34Q120.91-25.34 121.91-24.83 122.91-24.32 123.53-23.6 124.14-22.88 124.42-22.08 124.7-21.29 124.7-20.7L124.7-20.7Q125.87-22 127.16-23.02L127.16-23.02Q127.7-23.46 128.33-23.88 128.97-24.29 129.67-24.62 130.36-24.95 131.08-25.15 131.8-25.34 132.53-25.34L132.53-25.34Q133.95-25.34 134.95-24.82 135.95-24.29 136.56-23.44 137.17-22.58 137.45-21.51 137.73-20.43 137.73-19.36L137.73-19.36 137.73-4.25Q137.73-4.03 137.76-3.77 137.78-3.52 137.88-3.28 137.98-3.05 138.19-2.91 138.39-2.76 138.74-2.76L138.74-2.76Q139.2-2.76 139.57-3.09 139.93-3.42 140.25-3.76L140.25-3.76 140.83-3.25Q140.49-2.73 139.93-2.11 139.37-1.49 138.6-0.93 137.83-0.37 136.82 0.01 135.81 0.39 134.54 0.39L134.54 0.39Q133.46 0.39 132.67 0.11 131.87-0.17 131.33-0.65 130.78-1.12 130.51-1.77 130.24-2.42 130.24-3.15L130.24-3.15 130.24-19.46Q130.24-19.8 130.14-20.15 130.04-20.51 129.86-20.8 129.68-21.09 129.38-21.28 129.09-21.46 128.7-21.46L128.7-21.46Q128.04-21.46 127.39-21.08 126.75-20.7 126.2-20.21 125.65-19.73 125.26-19.24 124.87-18.75 124.7-18.51L124.7-18.51ZM165-18.51L165-2.15Q165-1.83 164.9-1.39 164.81-0.95 164.43-0.56 164.05-0.17 163.29 0.11 162.54 0.39 161.24 0.39L161.24 0.39Q159.95 0.39 159.2 0.09 158.46-0.22 158.08-0.63 157.7-1.05 157.6-1.49 157.51-1.93 157.51-2.2L157.51-2.2 157.51-19.46Q157.51-19.8 157.41-20.15 157.31-20.51 157.12-20.8 156.92-21.09 156.63-21.28 156.34-21.46 155.94-21.46L155.94-21.46Q155.29-21.46 154.65-21.08 154.02-20.7 153.47-20.21 152.92-19.73 152.51-19.24 152.11-18.75 151.94-18.51L151.94-18.51 151.94-2.15Q151.94-1.83 151.84-1.39 151.75-0.95 151.37-0.56 150.99-0.17 150.24 0.11 149.5 0.39 148.21 0.39L148.21 0.39Q146.91 0.39 146.17 0.09 145.42-0.22 145.03-0.63 144.64-1.05 144.54-1.49 144.45-1.93 144.45-2.2L144.45-2.2 144.45-21.04Q144.45-21.75 144.12-22.28 143.79-22.8 143.01-22.8L143.01-22.8Q142.59-22.8 142.3-22.66 142-22.51 141.66-22.24L141.66-22.24 141.15-22.85Q141.71-23.32 142.41-23.77 143.1-24.22 143.91-24.56 144.71-24.9 145.64-25.12 146.57-25.34 147.59-25.34L147.59-25.34Q149.18-25.34 150.06-24.82 150.94-24.29 151.35-23.56 151.77-22.83 151.86-22.03 151.94-21.24 151.94-20.7L151.94-20.7Q153.09-22 154.41-23.02L154.41-23.02Q154.94-23.46 155.59-23.88 156.24-24.29 156.92-24.62 157.6-24.95 158.34-25.15 159.07-25.34 159.8-25.34L159.8-25.34Q161.22-25.34 162.22-24.83 163.22-24.32 163.83-23.6 164.44-22.88 164.72-22.08 165-21.29 165-20.7L165-20.7Q166.17-22 167.47-23.02L167.47-23.02Q168.01-23.46 168.64-23.88 169.27-24.29 169.97-24.62 170.67-24.95 171.39-25.15 172.11-25.34 172.84-25.34L172.84-25.34Q174.26-25.34 175.26-24.82 176.26-24.29 176.87-23.44 177.48-22.58 177.76-21.51 178.04-20.43 178.04-19.36L178.04-19.36 178.04-4.25Q178.04-4.03 178.06-3.77 178.09-3.52 178.19-3.28 178.28-3.05 178.49-2.91 178.7-2.76 179.04-2.76L179.04-2.76Q179.5-2.76 179.87-3.09 180.24-3.42 180.55-3.76L180.55-3.76 181.14-3.25Q180.8-2.73 180.24-2.11 179.68-1.49 178.91-0.93 178.14-0.37 177.12 0.01 176.11 0.39 174.84 0.39L174.84 0.39Q173.77 0.39 172.97 0.11 172.18-0.17 171.63-0.65 171.08-1.12 170.81-1.77 170.54-2.42 170.54-3.15L170.54-3.15 170.54-19.46Q170.54-19.8 170.45-20.15 170.35-20.51 170.17-20.8 169.98-21.09 169.69-21.28 169.4-21.46 169.01-21.46L169.01-21.46Q168.35-21.46 167.7-21.08 167.05-20.7 166.5-20.21 165.95-19.73 165.56-19.24 165.17-18.75 165-18.51L165-18.51ZM200.4-16.89L190.76-11.21Q190.76-10.42 190.99-9.51 191.22-8.59 191.66-7.67 192.1-6.74 192.75-5.9 193.39-5.05 194.24-4.39 195.08-3.74 196.1-3.34 197.13-2.95 198.35-2.95L198.35-2.95Q199.2-2.95 199.94-3.15 200.67-3.34 201.3-3.69 201.94-4.03 202.52-4.48 203.11-4.93 203.7-5.44L203.7-5.44 204.31-4.86Q203.74-4.1 202.87-3.2 201.99-2.29 200.74-1.5 199.5-0.71 197.84-0.18 196.18 0.34 194.05 0.34L194.05 0.34Q191.93 0.34 189.91-0.43 187.9-1.2 186.34-2.73 184.78-4.27 183.84-6.57 182.9-8.86 182.9-11.94L182.9-11.94Q182.9-14.16 183.46-16.02 184.02-17.87 184.98-19.36 185.95-20.85 187.23-21.97 188.51-23.1 189.93-23.84 191.34-24.58 192.82-24.96 194.3-25.34 195.66-25.34L195.66-25.34Q197.47-25.34 198.81-24.95 200.16-24.56 201.05-23.9 201.94-23.24 202.38-22.38 202.82-21.51 202.82-20.56L202.82-20.56Q202.82-19.41 202.16-18.49 201.5-17.58 200.4-16.89L200.4-16.89ZM190.51-13.21L195.66-16.16Q195.98-16.36 196.19-16.54 196.4-16.72 196.52-16.98 196.64-17.24 196.7-17.61 196.76-17.99 196.76-18.55L196.76-18.55Q196.76-19.17 196.63-19.91 196.49-20.65 196.18-21.31 195.86-21.97 195.37-22.41 194.88-22.85 194.2-22.85L194.2-22.85Q193.32-22.85 192.7-22.33 192.07-21.8 191.67-20.97 191.27-20.14 191.04-19.08 190.81-18.02 190.68-16.94 190.56-15.87 190.54-14.88 190.51-13.89 190.51-13.21L190.51-13.21ZM215.39-20.19L215.39-20.19Q216.32-21.61 217.37-22.75L217.37-22.75Q217.8-23.24 218.32-23.71 218.83-24.17 219.38-24.54 219.93-24.9 220.51-25.12 221.1-25.34 221.69-25.34L221.69-25.34Q222.93-25.34 223.64-24.6 224.35-23.85 224.35-22.51L224.35-22.51Q224.35-21.68 224.21-20.91 224.08-20.14 223.69-19.04L223.69-19.04 223-19.04Q222.86-19.8 222.32-20.3 221.78-20.8 220.76-20.8L220.76-20.8Q220-20.8 219.27-20.52 218.54-20.24 217.84-19.82 217.15-19.41 216.52-18.92 215.9-18.43 215.39-17.99L215.39-17.99 215.39-2.15Q215.39-1.83 215.29-1.39 215.19-0.95 214.81-0.56 214.44-0.17 213.69 0.11 212.95 0.39 211.65 0.39L211.65 0.39Q210.36 0.39 209.61 0.09 208.87-0.22 208.48-0.63 208.09-1.05 207.99-1.49 207.89-1.93 207.89-2.2L207.89-2.2 207.89-21.04Q207.89-21.75 207.56-22.28 207.23-22.8 206.45-22.8L206.45-22.8Q206.04-22.8 205.74-22.66 205.45-22.51 205.11-22.24L205.11-22.24 204.6-22.85Q205.16-23.32 205.85-23.77 206.55-24.22 207.36-24.56 208.16-24.9 209.09-25.12 210.02-25.34 211.04-25.34L211.04-25.34Q212.09-25.34 212.84-25.06 213.58-24.78 214.06-24.33 214.53-23.88 214.8-23.32 215.07-22.75 215.2-22.18 215.34-21.61 215.36-21.08 215.39-20.56 215.39-20.19ZM241.95-16.89L241.95-16.89Q241.19-16.89 240.68-17.13 240.17-17.36 239.85-17.75 239.53-18.14 239.38-18.62 239.24-19.09 239.24-19.6L239.24-19.6Q239.24-20.26 239.32-20.87 239.41-21.48 239.35-21.97 239.29-22.46 238.97-22.75 238.65-23.05 237.85-23.05L237.85-23.05Q236.99-23.05 236.04-22.56 235.09-22.07 234.31-21.02 233.52-19.97 233.01-18.32 232.5-16.67 232.5-14.36L232.5-14.36Q232.5-11.79 232.98-9.68 233.45-7.57 234.4-6.08 235.36-4.59 236.77-3.77 238.19-2.95 240.09-2.95L240.09-2.95Q240.95-2.95 241.72-3.15 242.48-3.34 243.17-3.69 243.85-4.03 244.47-4.48 245.1-4.93 245.68-5.44L245.68-5.44 246.29-4.86Q245.73-4.1 244.85-3.2 243.97-2.29 242.73-1.5 241.48-0.71 239.82-0.18 238.16 0.34 236.04 0.34L236.04 0.34Q233.92 0.34 231.9-0.48 229.89-1.29 228.32-2.86 226.76-4.42 225.82-6.65 224.88-8.89 224.88-11.74L224.88-11.74Q224.88-13.96 225.44-15.83 226.01-17.7 226.97-19.21 227.93-20.73 229.22-21.88 230.5-23.02 231.91-23.79 233.33-24.56 234.81-24.95 236.28-25.34 237.65-25.34L237.65-25.34Q239.46-25.34 240.8-24.93 242.14-24.51 243.03-23.83 243.93-23.14 244.36-22.25 244.8-21.36 244.8-20.41L244.8-20.41Q244.8-19.7 244.62-19.06 244.44-18.41 244.08-17.93 243.73-17.46 243.19-17.18 242.66-16.89 241.95-16.89ZM265.53-16.89L255.89-11.21Q255.89-10.42 256.12-9.51 256.35-8.59 256.79-7.67 257.23-6.74 257.88-5.9 258.52-5.05 259.36-4.39 260.21-3.74 261.23-3.34 262.26-2.95 263.48-2.95L263.48-2.95Q264.33-2.95 265.07-3.15 265.8-3.34 266.43-3.69 267.07-4.03 267.65-4.48 268.24-4.93 268.83-5.44L268.83-5.44 269.44-4.86Q268.87-4.1 268-3.2 267.12-2.29 265.87-1.5 264.63-0.71 262.97-0.18 261.31 0.34 259.18 0.34L259.18 0.34Q257.06 0.34 255.04-0.43 253.03-1.2 251.47-2.73 249.9-4.27 248.96-6.57 248.02-8.86 248.02-11.94L248.02-11.94Q248.02-14.16 248.59-16.02 249.15-17.87 250.11-19.36 251.08-20.85 252.36-21.97 253.64-23.1 255.06-23.84 256.47-24.58 257.95-24.96 259.43-25.34 260.79-25.34L260.79-25.34Q262.6-25.34 263.94-24.95 265.29-24.56 266.18-23.9 267.07-23.24 267.51-22.38 267.95-21.51 267.95-20.56L267.95-20.56Q267.95-19.41 267.29-18.49 266.63-17.58 265.53-16.89L265.53-16.89ZM255.64-13.21L260.79-16.16Q261.11-16.36 261.32-16.54 261.53-16.72 261.65-16.98 261.77-17.24 261.83-17.61 261.89-17.99 261.89-18.55L261.89-18.55Q261.89-19.17 261.76-19.91 261.62-20.65 261.31-21.31 260.99-21.97 260.5-22.41 260.01-22.85 259.33-22.85L259.33-22.85Q258.45-22.85 257.83-22.33 257.2-21.8 256.8-20.97 256.4-20.14 256.17-19.08 255.93-18.02 255.81-16.94 255.69-15.87 255.67-14.88 255.64-13.89 255.64-13.21L255.64-13.21ZM301.34-32.15L301.34-3.2Q301.34-1.32 300.35-0.46 299.36 0.39 297.34 0.39L297.34 0.39Q295.29 0.39 294.31-0.46 293.33-1.32 293.33-3.2L293.33-3.2 293.33-32.4Q293.33-33.74 291.48-33.74L291.48-33.74Q290.13-33.74 288.75-33.34 287.37-32.93 286.26-32.24 285.15-31.54 284.45-30.58 283.74-29.61 283.74-28.49L283.74-28.49Q283.74-27.71 283.94-27.25 284.15-26.78 284.42-26.55 284.69-26.32 284.97-26.26 285.25-26.2 285.37-26.2L285.37-26.2Q285.98-26.2 286.37-26.4 286.76-26.61 287.08-26.84 287.4-27.08 287.68-27.28 287.96-27.49 288.33-27.49L288.33-27.49Q288.62-27.49 288.95-27.36 289.28-27.22 289.56-26.93 289.84-26.64 290.04-26.16 290.23-25.68 290.23-25L290.23-25Q290.23-24.02 289.85-23.32 289.47-22.61 288.88-22.13 288.28-21.66 287.51-21.42 286.74-21.19 285.98-21.19L285.98-21.19Q284.81-21.19 283.87-21.59 282.93-22 282.27-22.71 281.61-23.41 281.27-24.37 280.93-25.32 280.93-26.39L280.93-26.39Q280.93-28.42 281.69-29.97 282.44-31.52 283.82-32.64 285.2-33.76 287.13-34.51 289.06-35.25 291.4-35.69 293.75-36.13 296.42-36.32 299.09-36.5 301.97-36.5L301.97-36.5Q308.96-36.5 312.55-33.83 316.13-31.15 316.13-26.15L316.13-26.15Q316.13-23.71 315.49-21.83 314.84-19.95 313.75-18.59 312.67-17.24 311.25-16.39 309.84-15.55 308.32-15.19 306.81-14.82 305.28-14.89 303.76-14.97 302.44-15.45L302.44-15.45 302.78-16.5Q304.61-15.94 305.8-16.47 306.98-16.99 307.65-18.33 308.32-19.68 308.58-21.73 308.83-23.78 308.83-26.25L308.83-26.25Q308.83-28.1 308.44-29.63 308.05-31.15 307.38-32.23 306.71-33.3 305.82-33.9 304.93-34.5 303.93-34.5L303.93-34.5Q303.15-34.5 302.65-34.27 302.15-34.03 301.86-33.68 301.58-33.33 301.47-32.92 301.36-32.52 301.34-32.15L301.34-32.15ZM327.22-33.96L327.22-2.15Q327.22-1.83 327.11-1.39 327-0.95 326.59-0.56 326.19-0.17 325.42 0.11 324.65 0.39 323.36 0.39L323.36 0.39Q322.06 0.39 321.33 0.09 320.6-0.22 320.25-0.63 319.89-1.05 319.81-1.49 319.72-1.93 319.72-2.2L319.72-2.2 319.72-33.69Q319.72-34.4 319.39-34.92 319.06-35.45 318.28-35.45L318.28-35.45Q317.87-35.45 317.56-35.31 317.26-35.18 316.91-34.91L316.91-34.91 316.43-35.5Q316.99-35.96 317.67-36.41 318.35-36.87 319.17-37.21 319.99-37.55 320.92-37.77 321.85-37.99 322.87-37.99L322.87-37.99Q324.46-37.99 325.34-37.56 326.22-37.13 326.63-36.51 327.05-35.89 327.13-35.19 327.22-34.5 327.22-33.96L327.22-33.96ZM344.35-6.69L344.35-12.65Q344.35-13.26 343.96-13.57 343.57-13.89 342.96-13.89L342.96-13.89Q342.11-13.89 341.34-13.5 340.57-13.11 339.98-12.35 339.4-11.6 339.05-10.49 338.71-9.38 338.71-7.91L338.71-7.91Q338.71-6.49 338.92-5.57 339.13-4.64 339.48-4.09 339.84-3.54 340.3-3.32 340.76-3.1 341.28-3.1L341.28-3.1Q341.91-3.1 342.47-3.43 343.03-3.76 343.45-4.27 343.86-4.79 344.11-5.42 344.35-6.05 344.35-6.69L344.35-6.69ZM340.47-23.34L340.47-23.34Q339.64-23.34 338.93-23.14 338.22-22.95 337.71-22.66 337.2-22.36 336.91-22.01 336.61-21.66 336.61-21.34L336.61-21.34Q336.61-20.97 336.99-20.81 337.37-20.65 337.83-20.45 338.3-20.24 338.68-19.86 339.05-19.48 339.05-18.7L339.05-18.7Q339.05-18.19 338.85-17.76 338.64-17.33 338.29-17 337.93-16.67 337.46-16.49 336.98-16.31 336.47-16.31L336.47-16.31Q335.1-16.31 334.26-17.24 333.41-18.16 333.41-19.7L333.41-19.7Q333.41-21.19 334.2-22.25 334.98-23.32 336.23-24 337.49-24.68 339.08-25.01 340.67-25.34 342.25-25.34L342.25-25.34Q344.16-25.34 345.89-24.93 347.62-24.51 348.95-23.61 350.28-22.71 351.08-21.31 351.87-19.92 351.87-17.94L351.87-17.94 351.87-4.15Q351.87-3.93 351.9-3.66 351.92-3.39 352.02-3.17 352.12-2.95 352.31-2.81 352.51-2.66 352.87-2.66L352.87-2.66Q353.31-2.66 353.69-2.99 354.07-3.32 354.36-3.66L354.36-3.66 354.97-3.15Q354.61-2.64 354.09-2.03 353.58-1.42 352.85-0.88 352.12-0.34 351.14 0.02 350.16 0.39 348.92 0.39L348.92 0.39Q347.38 0.39 346.18-0.52 344.99-1.44 344.62-3.34L344.62-3.34Q343.84-2.29 343-1.59 342.16-0.88 341.28-0.44 340.4 0 339.51 0.2 338.61 0.39 337.71 0.39L337.71 0.39Q336.54 0.39 335.44 0.02 334.34-0.34 333.48-1.14 332.61-1.93 332.08-3.2 331.56-4.47 331.56-6.3L331.56-6.3Q331.56-8.52 332.44-9.94 333.32-11.35 334.75-12.32 336.17-13.28 337.99-13.96 339.81-14.65 341.72-15.41L341.72-15.41Q343.13-15.97 343.78-17.08 344.43-18.19 344.43-19.36L344.43-19.36Q344.43-21.17 343.36-22.25 342.3-23.34 340.47-23.34ZM369.96-23.24L366.18-23.24 366.18-5.2Q366.18-3.91 366.66-3.41 367.15-2.91 368.01-2.91L368.01-2.91Q368.67-2.91 369.18-3.27 369.69-3.64 370.06-4.1L370.06-4.1Q370.5-4.61 370.81-5.3L370.81-5.3 371.57-4.96Q371.21-4.17 370.7-3.25 370.2-2.32 369.37-1.53 368.54-0.73 367.29-0.2 366.03 0.34 364.13 0.34L364.13 0.34Q363.05 0.34 362.06 0.02 361.07-0.29 360.3-0.98 359.54-1.66 359.07-2.69 358.61-3.71 358.61-5.15L358.61-5.15 358.61-23.24 355.87-23.24 355.87-25Q356.56-25 357.78-25.35 359-25.71 360.28-26.54 361.56-27.37 362.66-28.76 363.76-30.15 364.22-32.2L364.22-32.2 366.18-32.2 366.18-25 370.16-25Q372.11-25 372.11-25.66L372.11-25.66Q372.11-25.9 371.86-25.99 371.62-26.07 371.32-26.21 371.01-26.34 370.77-26.59 370.52-26.83 370.52-27.39L370.52-27.39Q370.52-28.08 370.95-28.47 371.38-28.86 372.06-28.86L372.06-28.86Q372.5-28.86 372.83-28.67 373.16-28.49 373.38-28.19 373.6-27.88 373.71-27.49 373.82-27.1 373.82-26.71L373.82-26.71Q373.82-25.12 372.9-24.18 371.99-23.24 369.96-23.24L369.96-23.24ZM387.15-36.3L387.15-36.3Q386.46-36.3 385.85-36.01 385.24-35.72 384.79-35.07 384.34-34.42 384.07-33.42 383.8-32.42 383.8-31.01L383.8-31.01 383.8-25 389.15-25 389.15-23.24 383.8-23.24 383.8-4Q383.8-0.68 382.93 2.12 382.07 4.93 380.31 6.97 378.55 9.01 375.91 10.16 373.28 11.3 369.76 11.3L369.76 11.3Q368.52 11.3 367.37 11.1 366.22 10.89 365.34 10.52 364.46 10.16 363.94 9.66 363.41 9.16 363.41 8.54L363.41 8.54Q363.41 8.11 363.54 7.65 363.66 7.2 363.9 6.84 364.15 6.47 364.5 6.24 364.86 6.01 365.32 6.01L365.32 6.01Q365.59 6.01 365.8 6.27 366 6.54 366.22 6.93 366.44 7.32 366.72 7.8 367 8.28 367.44 8.67 367.88 9.06 368.53 9.33 369.18 9.59 370.1 9.59L370.1 9.59Q371.35 9.59 372.3 9.09 373.25 8.59 373.94 7.71 374.62 6.84 375.08 5.64 375.55 4.44 375.82 3.08 376.09 1.71 376.2 0.22 376.31-1.27 376.31-2.76L376.31-2.76 376.31-23.24 371.81-23.24 371.81-25 376.31-25 376.31-27.86Q376.31-30 376.83-31.6 377.36-33.2 378.22-34.33 379.09-35.45 380.19-36.16 381.29-36.87 382.42-37.28 383.56-37.7 384.63-37.84 385.7-37.99 386.51-37.99L386.51-37.99Q388.24-37.99 389.59-37.73 390.93-37.48 391.83-37.05 392.74-36.62 393.2-36.06 393.66-35.5 393.66-34.91L393.66-34.91Q393.66-34.47 393.53-34.02 393.4-33.57 393.15-33.19 392.91-32.81 392.55-32.58 392.2-32.35 391.76-32.35L391.76-32.35Q391.49-32.35 391.27-32.64 391.05-32.93 390.81-33.37 390.56-33.81 390.27-34.33 389.98-34.84 389.55-35.28 389.12-35.72 388.54-36.01 387.95-36.3 387.15-36.3ZM389.32-12.5L389.32-12.5Q389.32-15.7 390.24-18.1 391.17-20.51 392.72-22.12 394.27-23.73 396.32-24.54 398.37-25.34 400.62-25.34L400.62-25.34Q402.87-25.34 404.92-24.6 406.97-23.85 408.52-22.31 410.07-20.78 411-18.42 411.92-16.06 411.92-12.84L411.92-12.84Q411.92-9.64 411-7.18 410.07-4.71 408.52-3.03 406.97-1.34 404.92-0.48 402.87 0.39 400.62 0.39L400.62 0.39Q398.37 0.39 396.32-0.43 394.27-1.25 392.72-2.86 391.17-4.47 390.24-6.88 389.32-9.3 389.32-12.5ZM404.33-12.74L404.33-12.74Q404.33-14.7 404.2-16.52 404.06-18.33 403.67-19.75 403.28-21.17 402.55-22.01 401.82-22.85 400.62-22.85L400.62-22.85Q399.42-22.85 398.69-21.96 397.96-21.07 397.57-19.62 397.18-18.16 397.05-16.31 396.93-14.45 396.93-12.5L396.93-12.5Q396.93-10.55 397.05-8.68 397.18-6.81 397.57-5.35 397.96-3.88 398.69-2.99 399.42-2.1 400.62-2.1L400.62-2.1Q401.82-2.1 402.55-3.03 403.28-3.96 403.67-5.47 404.06-6.98 404.2-8.89 404.33-10.79 404.33-12.74ZM424.27-20.19L424.27-20.19Q425.2-21.61 426.25-22.75L426.25-22.75Q426.69-23.24 427.2-23.71 427.72-24.17 428.27-24.54 428.81-24.9 429.4-25.12 429.99-25.34 430.57-25.34L430.57-25.34Q431.82-25.34 432.53-24.6 433.23-23.85 433.23-22.51L433.23-22.51Q433.23-21.68 433.1-20.91 432.97-20.14 432.57-19.04L432.57-19.04 431.89-19.04Q431.74-19.8 431.21-20.3 430.67-20.8 429.65-20.8L429.65-20.8Q428.89-20.8 428.16-20.52 427.42-20.24 426.73-19.82 426.03-19.41 425.41-18.92 424.79-18.43 424.27-17.99L424.27-17.99 424.27-2.15Q424.27-1.83 424.18-1.39 424.08-0.95 423.7-0.56 423.32-0.17 422.58 0.11 421.83 0.39 420.54 0.39L420.54 0.39Q419.24 0.39 418.5 0.09 417.76-0.22 417.36-0.63 416.97-1.05 416.88-1.49 416.78-1.93 416.78-2.2L416.78-2.2 416.78-21.04Q416.78-21.75 416.45-22.28 416.12-22.8 415.34-22.8L415.34-22.8Q414.92-22.8 414.63-22.66 414.34-22.51 414-22.24L414-22.24 413.48-22.85Q414.04-23.32 414.74-23.77 415.44-24.22 416.24-24.56 417.05-24.9 417.98-25.12 418.9-25.34 419.93-25.34L419.93-25.34Q420.98-25.34 421.72-25.06 422.47-24.78 422.94-24.33 423.42-23.88 423.69-23.32 423.96-22.75 424.09-22.18 424.23-21.61 424.25-21.08 424.27-20.56 424.27-20.19ZM457.18-18.51L457.18-2.15Q457.18-1.83 457.08-1.39 456.99-0.95 456.61-0.56 456.23-0.17 455.47 0.11 454.72 0.39 453.42 0.39L453.42 0.39Q452.13 0.39 451.38 0.09 450.64-0.22 450.26-0.63 449.88-1.05 449.78-1.49 449.69-1.93 449.69-2.2L449.69-2.2 449.69-19.46Q449.69-19.8 449.59-20.15 449.49-20.51 449.3-20.8 449.1-21.09 448.81-21.28 448.51-21.46 448.12-21.46L448.12-21.46Q447.46-21.46 446.83-21.08 446.2-20.7 445.65-20.21 445.1-19.73 444.69-19.24 444.29-18.75 444.12-18.51L444.12-18.51 444.12-2.15Q444.12-1.83 444.02-1.39 443.92-0.95 443.55-0.56 443.17-0.17 442.42 0.11 441.68 0.39 440.38 0.39L440.38 0.39Q439.09 0.39 438.35 0.09 437.6-0.22 437.21-0.63 436.82-1.05 436.72-1.49 436.62-1.93 436.62-2.2L436.62-2.2 436.62-21.04Q436.62-21.75 436.3-22.28 435.97-22.8 435.18-22.8L435.18-22.8Q434.77-22.8 434.48-22.66 434.18-22.51 433.84-22.24L433.84-22.24 433.33-22.85Q433.89-23.32 434.59-23.77 435.28-24.22 436.09-24.56 436.89-24.9 437.82-25.12 438.75-25.34 439.77-25.34L439.77-25.34Q441.36-25.34 442.24-24.82 443.12-24.29 443.53-23.56 443.95-22.83 444.03-22.03 444.12-21.24 444.12-20.7L444.12-20.7Q445.27-22 446.59-23.02L446.59-23.02Q447.12-23.46 447.77-23.88 448.42-24.29 449.1-24.62 449.78-24.95 450.52-25.15 451.25-25.34 451.98-25.34L451.98-25.34Q453.4-25.34 454.4-24.83 455.4-24.32 456.01-23.6 456.62-22.88 456.9-22.08 457.18-21.29 457.18-20.7L457.18-20.7Q458.35-22 459.65-23.02L459.65-23.02Q460.18-23.46 460.82-23.88 461.45-24.29 462.15-24.62 462.85-24.95 463.57-25.15 464.29-25.34 465.02-25.34L465.02-25.34Q466.43-25.34 467.44-24.82 468.44-24.29 469.05-23.44 469.66-22.58 469.94-21.51 470.22-20.43 470.22-19.36L470.22-19.36 470.22-4.25Q470.22-4.03 470.24-3.77 470.27-3.52 470.37-3.28 470.46-3.05 470.67-2.91 470.88-2.76 471.22-2.76L471.22-2.76Q471.68-2.76 472.05-3.09 472.42-3.42 472.73-3.76L472.73-3.76 473.32-3.25Q472.98-2.73 472.42-2.11 471.85-1.49 471.09-0.93 470.32-0.37 469.3 0.01 468.29 0.39 467.02 0.39L467.02 0.39Q465.95 0.39 465.15 0.11 464.36-0.17 463.81-0.65 463.26-1.12 462.99-1.77 462.72-2.42 462.72-3.15L462.72-3.15 462.72-19.46Q462.72-19.8 462.63-20.15 462.53-20.51 462.35-20.8 462.16-21.09 461.87-21.28 461.58-21.46 461.19-21.46L461.19-21.46Q460.53-21.46 459.88-21.08 459.23-20.7 458.68-20.21 458.13-19.73 457.74-19.24 457.35-18.75 457.18-18.51L457.18-18.51ZM514.89-18.95L514.89-16.8 505.25-16.8 505.25-3.2Q505.25-1.32 504.26-0.46 503.27 0.39 501.24 0.39L501.24 0.39Q499.19 0.39 498.22-0.46 497.24-1.32 497.24-3.2L497.24-3.2 497.24-16.8 493.43-16.8 493.43-18.95 497.24-18.95 497.24-34.3Q496.46-34.23 495.45-34.02 494.43-33.81 493.37-33.44 492.31-33.06 491.28-32.54 490.26-32.03 489.45-31.35 488.65-30.66 488.15-29.82 487.65-28.98 487.65-28L487.65-28Q487.65-27.22 487.85-26.76 488.06-26.29 488.33-26.06 488.6-25.83 488.88-25.77 489.16-25.71 489.28-25.71L489.28-25.71Q489.89-25.71 490.28-25.92 490.67-26.12 490.99-26.35 491.31-26.59 491.59-26.79 491.87-27 492.24-27L492.24-27Q492.53-27 492.86-26.87 493.19-26.73 493.47-26.44 493.75-26.15 493.94-25.67 494.14-25.2 494.14-24.51L494.14-24.51Q494.14-23.54 493.76-22.81 493.38-22.09 492.78-21.63 492.19-21.17 491.42-20.94 490.65-20.7 489.89-20.7L489.89-20.7Q488.72-20.7 487.78-21.11 486.84-21.51 486.18-22.22 485.52-22.92 485.18-23.86 484.84-24.8 484.84-25.9L484.84-25.9Q484.84-28.76 486.41-30.76 487.99-32.76 490.72-34.05 493.46-35.33 497.09-35.91 500.73-36.5 504.88-36.5L504.88-36.5Q506.57-36.5 508.4-36.46 510.23-36.43 511.85-36.35 513.48-36.28 514.72-36.18 515.97-36.08 516.48-35.96L516.48-35.96Q516.97-35.84 517.26-35.69 517.55-35.55 517.7-35.35 517.85-35.16 517.89-34.9 517.94-34.64 517.94-34.3L517.94-34.3Q517.94-34.01 517.87-33.65 517.8-33.3 517.65-33 517.5-32.69 517.28-32.47 517.06-32.25 516.75-32.25L516.75-32.25Q516.55-32.25 516.32-32.42 516.09-32.59 515.66-32.86 515.23-33.13 514.51-33.42 513.79-33.72 512.58-33.98 511.38-34.25 509.58-34.42 507.79-34.59 505.25-34.59L505.25-34.59 505.25-18.95 514.89-18.95ZM517.48-12.5L517.48-12.5Q517.48-15.7 518.4-18.1 519.33-20.51 520.88-22.12 522.43-23.73 524.48-24.54 526.53-25.34 528.78-25.34L528.78-25.34Q531.03-25.34 533.08-24.6 535.13-23.85 536.68-22.31 538.23-20.78 539.16-18.42 540.08-16.06 540.08-12.84L540.08-12.84Q540.08-9.64 539.16-7.18 538.23-4.71 536.68-3.03 535.13-1.34 533.08-0.48 531.03 0.39 528.78 0.39L528.78 0.39Q526.53 0.39 524.48-0.43 522.43-1.25 520.88-2.86 519.33-4.47 518.4-6.88 517.48-9.3 517.48-12.5ZM532.49-12.74L532.49-12.74Q532.49-14.7 532.36-16.52 532.22-18.33 531.83-19.75 531.44-21.17 530.71-22.01 529.98-22.85 528.78-22.85L528.78-22.85Q527.58-22.85 526.85-21.96 526.12-21.07 525.73-19.62 525.34-18.16 525.22-16.31 525.09-14.45 525.09-12.5L525.09-12.5Q525.09-10.55 525.22-8.68 525.34-6.81 525.73-5.35 526.12-3.88 526.85-2.99 527.58-2.1 528.78-2.1L528.78-2.1Q529.98-2.1 530.71-3.03 531.44-3.96 531.83-5.47 532.22-6.98 532.36-8.89 532.49-10.79 532.49-12.74ZM552.44-20.19L552.44-20.19Q553.36-21.61 554.41-22.75L554.41-22.75Q554.85-23.24 555.36-23.71 555.88-24.17 556.43-24.54 556.98-24.9 557.56-25.12 558.15-25.34 558.73-25.34L558.73-25.34Q559.98-25.34 560.69-24.6 561.4-23.85 561.4-22.51L561.4-22.51Q561.4-21.68 561.26-20.91 561.13-20.14 560.74-19.04L560.74-19.04 560.05-19.04Q559.91-19.8 559.37-20.3 558.83-20.8 557.81-20.8L557.81-20.8Q557.05-20.8 556.32-20.52 555.58-20.24 554.89-19.82 554.19-19.41 553.57-18.92 552.95-18.43 552.44-17.99L552.44-17.99 552.44-2.15Q552.44-1.83 552.34-1.39 552.24-0.95 551.86-0.56 551.48-0.17 550.74 0.11 549.99 0.39 548.7 0.39L548.7 0.39Q547.41 0.39 546.66 0.09 545.92-0.22 545.53-0.63 545.14-1.05 545.04-1.49 544.94-1.93 544.94-2.2L544.94-2.2 544.94-21.04Q544.94-21.75 544.61-22.28 544.28-22.8 543.5-22.8L543.5-22.8Q543.08-22.8 542.79-22.66 542.5-22.51 542.16-22.24L542.16-22.24 541.64-22.85Q542.21-23.32 542.9-23.77 543.6-24.22 544.4-24.56 545.21-24.9 546.14-25.12 547.06-25.34 548.09-25.34L548.09-25.34Q549.14-25.34 549.88-25.06 550.63-24.78 551.1-24.33 551.58-23.88 551.85-23.32 552.12-22.75 552.25-22.18 552.39-21.61 552.41-21.08 552.44-20.56 552.44-20.19ZM583.34 3.54L583.34 3.54Q584.31 3.54 585.27 3.19 586.22 2.83 586.96 2.01 587.71 1.2 588.17-0.12 588.64-1.44 588.64-3.34L588.64-3.34Q588.64-5.4 587.62-7.32 586.61-9.25 585.08-11.12 583.56-12.99 581.79-14.83 580.02-16.67 578.49-18.59 576.97-20.51 575.95-22.55 574.94-24.58 574.94-26.81L574.94-26.81Q574.94-29.03 575.76-30.82 576.58-32.62 577.98-33.87 579.38-35.13 581.25-35.82 583.12-36.5 585.24-36.5L585.24-36.5Q587.51-36.5 589.28-36.02 591.05-35.55 592.29-34.73 593.52-33.91 594.15-32.8 594.79-31.69 594.79-30.44L594.79-30.44Q594.79-29.86 594.62-29.24 594.45-28.61 594.08-28.1 593.71-27.59 593.15-27.25 592.59-26.9 591.83-26.9L591.83-26.9Q590.93-26.9 590.5-27.45 590.08-28 589.87-28.81 589.66-29.61 589.52-30.58 589.37-31.54 589.05-32.35 588.73-33.15 588.1-33.7 587.46-34.25 586.24-34.25L586.24-34.25Q585.58-34.25 584.94-33.96 584.29-33.67 583.77-33.07 583.24-32.47 582.92-31.54 582.61-30.62 582.61-29.35L582.61-29.35Q582.61-27.88 583.22-26.49 583.83-25.1 584.83-23.74 585.83-22.39 587.11-21.03 588.39-19.68 589.72-18.3 591.05-16.92 592.34-15.47 593.62-14.01 594.62-12.45 595.62-10.89 596.23-9.18 596.84-7.47 596.84-5.59L596.84-5.59Q596.84-2.83 595.78-0.67 594.72 1.49 592.9 2.97 591.08 4.44 588.64 5.22 586.19 6.01 583.44 6.01L583.44 6.01Q580.95 6.01 579.03 5.38 577.11 4.76 575.79 3.74 574.48 2.71 573.8 1.4 573.13 0.1 573.13-1.29L573.13-1.29Q573.13-1.88 573.32-2.55 573.5-3.22 573.85-3.78 574.21-4.35 574.74-4.72 575.28-5.1 575.99-5.1L575.99-5.1Q576.72-5.1 577.17-4.74 577.63-4.37 577.89-3.76 578.16-3.15 578.33-2.37 578.5-1.59 578.7-0.78 578.9 0.02 579.19 0.81 579.48 1.59 579.99 2.2 580.51 2.81 581.31 3.17 582.12 3.54 583.34 3.54ZM609-33.96L609-20.7Q609.9-22 611.05-23.02L611.05-23.02Q611.51-23.46 612.08-23.88 612.66-24.29 613.3-24.62 613.95-24.95 614.67-25.15 615.39-25.34 616.15-25.34L616.15-25.34Q617.78-25.34 619.08-24.71 620.37-24.07 621.25-22.58 622.13-21.09 622.59-18.64 623.06-16.19 623.06-12.55L623.06-12.55Q623.06-9.01 622.42-6.4 621.79-3.78 620.76-1.95 619.74-0.12 618.44 1.04 617.15 2.2 615.83 2.86 614.51 3.52 613.29 3.77 612.07 4.03 611.19 4.05L611.19 4.05 610.95 3.05Q612.05 2.78 612.9 2.05 613.76 1.32 614.34-0.35 614.93-2.03 615.23-4.86 615.54-7.69 615.54-12.16L615.54-12.16Q615.54-15.23 615.26-17.08 614.98-18.92 614.52-19.89 614.07-20.85 613.5-21.15 612.93-21.46 612.34-21.46L612.34-21.46Q611.63-21.46 611.09-21.08 610.56-20.7 610.15-20.21 609.75-19.73 609.47-19.24 609.19-18.75 609-18.51L609-18.51 609-2.2Q609-1.88 608.9-1.43 608.8-0.98 608.42-0.57 608.04-0.17 607.3 0.11 606.55 0.39 605.26 0.39L605.26 0.39Q603.97 0.39 603.21 0.09 602.45-0.22 602.07-0.63 601.7-1.05 601.6-1.49 601.5-1.93 601.5-2.2L601.5-2.2 601.5-33.69Q601.5-34.4 601.17-34.92 600.84-35.45 600.06-35.45L600.06-35.45Q599.64-35.45 599.34-35.31 599.03-35.18 598.69-34.91L598.69-34.91 598.2-35.5Q598.77-35.96 599.45-36.41 600.13-36.87 600.95-37.21 601.77-37.55 602.7-37.77 603.62-37.99 604.65-37.99L604.65-37.99Q606.24-37.99 607.12-37.56 607.99-37.13 608.41-36.51 608.82-35.89 608.91-35.19 609-34.5 609-33.96L609-33.96ZM626.55-12.5L626.55-12.5Q626.55-15.7 627.47-18.1 628.4-20.51 629.95-22.12 631.5-23.73 633.55-24.54 635.6-25.34 637.85-25.34L637.85-25.34Q640.1-25.34 642.15-24.6 644.2-23.85 645.75-22.31 647.3-20.78 648.23-18.42 649.15-16.06 649.15-12.84L649.15-12.84Q649.15-9.64 648.23-7.18 647.3-4.71 645.75-3.03 644.2-1.34 642.15-0.48 640.1 0.39 637.85 0.39L637.85 0.39Q635.6 0.39 633.55-0.43 631.5-1.25 629.95-2.86 628.4-4.47 627.47-6.88 626.55-9.3 626.55-12.5ZM641.56-12.74L641.56-12.74Q641.56-14.7 641.43-16.52 641.29-18.33 640.9-19.75 640.51-21.17 639.78-22.01 639.05-22.85 637.85-22.85L637.85-22.85Q636.65-22.85 635.92-21.96 635.19-21.07 634.8-19.62 634.41-18.16 634.29-16.31 634.16-14.45 634.16-12.5L634.16-12.5Q634.16-10.55 634.29-8.68 634.41-6.81 634.8-5.35 635.19-3.88 635.92-2.99 636.65-2.1 637.85-2.1L637.85-2.1Q639.05-2.1 639.78-3.03 640.51-3.96 640.9-5.47 641.29-6.98 641.43-8.89 641.56-10.79 641.56-12.74ZM669.66-16.89L660.02-11.21Q660.02-10.42 660.25-9.51 660.48-8.59 660.92-7.67 661.36-6.74 662.01-5.9 662.65-5.05 663.49-4.39 664.34-3.74 665.36-3.34 666.39-2.95 667.61-2.95L667.61-2.95Q668.46-2.95 669.2-3.15 669.93-3.34 670.56-3.69 671.2-4.03 671.78-4.48 672.37-4.93 672.95-5.44L672.95-5.44 673.57-4.86Q673-4.1 672.12-3.2 671.25-2.29 670-1.5 668.76-0.71 667.1-0.18 665.44 0.34 663.31 0.34L663.31 0.34Q661.19 0.34 659.17-0.43 657.16-1.2 655.6-2.73 654.03-4.27 653.09-6.57 652.15-8.86 652.15-11.94L652.15-11.94Q652.15-14.16 652.72-16.02 653.28-17.87 654.24-19.36 655.21-20.85 656.49-21.97 657.77-23.1 659.19-23.84 660.6-24.58 662.08-24.96 663.56-25.34 664.92-25.34L664.92-25.34Q666.73-25.34 668.07-24.95 669.41-24.56 670.31-23.9 671.2-23.24 671.64-22.38 672.08-21.51 672.08-20.56L672.08-20.56Q672.08-19.41 671.42-18.49 670.76-17.58 669.66-16.89L669.66-16.89ZM659.77-13.21L664.92-16.16Q665.24-16.36 665.45-16.54 665.66-16.72 665.78-16.98 665.9-17.24 665.96-17.61 666.02-17.99 666.02-18.55L666.02-18.55Q666.02-19.17 665.89-19.91 665.75-20.65 665.44-21.31 665.12-21.97 664.63-22.41 664.14-22.85 663.46-22.85L663.46-22.85Q662.58-22.85 661.96-22.33 661.33-21.8 660.93-20.97 660.53-20.14 660.3-19.08 660.06-18.02 659.94-16.94 659.82-15.87 659.8-14.88 659.77-13.89 659.77-13.21L659.77-13.21ZM684.7-23.39L684.7-23.39Q684.13-23.39 683.63-23.24 683.13-23.1 682.74-22.77 682.35-22.44 682.13-21.94 681.91-21.44 681.91-20.75L681.91-20.75Q681.91-19.8 682.61-18.86 683.3-17.92 684.34-16.91 685.38-15.89 686.59-14.81 687.8-13.72 688.83-12.51 689.87-11.3 690.57-9.94 691.26-8.57 691.26-7.01L691.26-7.01Q691.26-5.25 690.66-3.88 690.07-2.51 688.96-1.56 687.85-0.61 686.27-0.11 684.7 0.39 682.77 0.39L682.77 0.39Q681.08 0.39 679.72-0.09 678.35-0.56 677.29-1.26 676.22-1.95 675.47-2.73 674.71-3.52 674.3-4.15L674.3-4.15 675.15-4.76Q675.47-4.39 675.96-3.97 676.44-3.54 677.04-3.17 677.64-2.81 678.32-2.58 679.01-2.34 679.72-2.34L679.72-2.34Q681.47-2.34 682.6-3.19 683.72-4.03 683.72-5.69L683.72-5.69Q683.72-6.62 683.11-7.6 682.5-8.59 681.57-9.64 680.64-10.69 679.57-11.82 678.49-12.94 677.57-14.14 676.64-15.33 676.03-16.6 675.42-17.87 675.42-19.24L675.42-19.24Q675.42-20.78 676.04-21.92 676.66-23.07 677.7-23.83 678.74-24.58 680.07-24.96 681.4-25.34 682.82-25.34L682.82-25.34Q684.45-25.34 685.79-25.05 687.14-24.76 688.1-24.16 689.07-23.56 689.59-22.66 690.12-21.75 690.12-20.56L690.12-20.56Q690.12-19.63 689.51-18.95 688.89-18.26 687.8-18.26L687.8-18.26Q686.75-18.26 686.2-18.71 685.65-19.17 685.65-19.95L685.65-19.95Q685.65-20.46 685.9-20.75 686.16-21.04 686.48-21.23 686.8-21.41 687.05-21.55 687.31-21.68 687.31-21.9L687.31-21.9Q687.31-22.58 686.58-22.99 685.84-23.39 684.7-23.39Z" opacity="1" transform="matrix(1,0,0,1,0,0)" fill="#ffffff" class="wordmark-text-0" data-fill-palette-color="quaternary" id="text-0"></path></svg></g></svg></g></svg></g></svg></g><g></g></svg></g><defs></defs></svg><rect width="395.52" height="72.70932584101423" fill="none" stroke="none" visibility="hidden"></rect></g></svg></g></svg>