<svg xmlns="http://www.w3.org/2000/svg" version="1.1" xmlns:xlink="http://www.w3.org/1999/xlink" xmlns:svgjs="http://svgjs.dev/svgjs" width="1500" height="1500" viewBox="0 0 1500 1500"><rect width="1500" height="1500" fill="#ffffff"></rect><g transform="matrix(0.6666666666666666,0,0,0.6666666666666666,250.00007343750008,187.66666666666674)"><svg viewBox="0 0 320 360" data-background-color="#0042c7" preserveAspectRatio="xMidYMid meet" height="1687" width="1500" xmlns="http://www.w3.org/2000/svg" xmlns:xlink="http://www.w3.org/1999/xlink"><g id="tight-bounds" transform="matrix(1,0,0,1,0.000023499999997511622,0)"><svg viewBox="0 0 320 360" height="360" width="320"><g><svg></svg></g><g><svg viewBox="0 0 320 360" height="360" width="320"><g><path transform="translate(-74.99272,-51.79039) scale(4.65793,4.65793)" d="M20.6 59.9l0.8 1-0.4-1.3c-0.1-0.6-0.8 0.1-0.4 0.3M21.5 59.3c0.3 0.5 0.6 1 0.6 1.5 0 0.7 0.6 1 1.1 1.2-0.7-0.8-1.1-3-1.7-2.7M59.9 16.9c1.7 0 3.3-0.2 5.1 0.2 4.4 1.1 8.1 3.3 10.6 6.4l7 11.2c0.3 2.8 0.9 5.9 0.8 9.3 0.7 0 0.6-1 1.4-1.2-0.8 2-1.2 4.5-1.4 7.4-0.5-1.6 0-4 0.1-5.3-0.7 1.1-1.1 0.3-1.1-0.2 0.1-0.8-0.3-0.7-0.6-1-1.1-1-1.8-2.1-2.6-3.8 0.5-1.3 0.6-3.2-1-4.2-0.5-0.3-1.1-0.8-1.4-1.6-0.4-1.1-1.1-2.4-0.9-4.1 0.1-0.5-1.5 1.1-2.4 0.4-3.9-2.7-7.8-5.8-12.5-8.4-2.5 0-4.3-0.9-5.2-2-0.8-1-0.2-2.3 1-2.4 0.7 0 1.5-0.2 2.1 0.2 0.1-0.4 0.5-0.9 1-0.9M50 14.6l0.2 0.1c1 0.2 1.5 1.6 2.6 1.1 0 0.7 0.1 1.4-0.1 1.9-0.3 0.8-1.2 0.8-1.9 0.8-6.7-0.4-10.6 2.4-14.7 4.8-1.1 0.7-2.3 1.2-3.2 2.1-4.3 4-9 7.7-10.1 15.1l-0.9 8.2c-0.1 0.9-1.1 1.8-0.9 2.9l0.7 4.9c-0.7-0.7-1.1 0.2-0.9 0.6 0.1 0.3 0.5 1.3 1.1 0.4 0.8 1.5 1.6 4.4 2.7 5.7 3.4 4 7.8 7.6 11.4 11.2 0.9-0.2 1.6-0.2 1.8-0.8 0.3 0.6-0.3 1.2-0.8 1.3 1.6 1 3.4 1.9 5.8 2.1 3.1 0.2 6 0.7 8.7 1.4 1.4-0.4 2.8-0.6 4.3-0.7 0.5 0 0.8-0.8 1.4-1l0.1-1c0.6 0.9 0.5-0.3 0.1-0.9 0.7 0.6 0.9 1.1 1.2 1.5 0-0.3 0.8-1.4 0.8-0.1l0.2-1.3c0.3-0.2 0.4 1.1 0.7 0.2 0.3-0.9 0.9-0.2 1.5-0.5-0.2 0.4-0.1 1.2 0.6 0.7l0.8-0.7c0.5 1.2 1.3 0.7 1.7 0.5 4.4-2.8 8.8-6.1 13-9.4l-0.1 1.3 0.5-1.6c0.5 0.5 0.9 0.1 1.1-0.2 0.6-1 1.4-2 2.7-2.9-1.6 4.3-3.5 7.7-5.9 10.5l-1 1.2c0 0.7-0.2 1.6-1 1.7-0.4 0.1-1.2-0.2-1.8 0.4-0.3 0.4 0.7 1.2-0.1 0.6-0.7-0.5-1.4 0-2.2 0.2-0.6 0.2 0.4 0.8 0.6 1.2 0.2 0.4 0.4 0.8 0.3 1.3l-1.1-1.2c-1.3 0.7-2.1 2-3.2 3-0.5 0.4-0.3 1.1-0.3 1.7-0.7 0-1.5-0.2-1.9 0.2-0.3 0.4-0.2 1-0.2 1.6-1-0.1-1.1-1.6-2-1.3-0.9 0.2-1.9 0.3-2.7 0.8 0.6 1.2-1 0.5-0.8 0.7-1.5-0.9-2.8-1.6-4.4-1-3.4-1.1-7.6-0.6-10.7-0.2 0-0.5 0.1-1-0.1-1.1-0.2 0.5-0.8 0.3-0.7 0.3-1.9-1.3-3.8-2.1-5.8-3.2-1.8 0.2-3.5-0.7-4-1.2-1.4-1.3-3-0.6-4.3-0.9-2.8-0.7-3.8-3.6-4.1-5.6-0.2-1-1-1.4-1.3-1.3-1.3-4.2-3.3-8-4.9-11.9-0.4-1-0.3-2-0.3-3.1 0.5 0.2 1 0.1 0.9-0.6-0.5-3.3-1.7-5.8-3-8.2 0.7-3.4 0.8-7.4 2.4-10.4 1.4-2.7 4-4.1 5.8-6.4 0.6-0.8 0.6-1.9 1.2-2.6 2-2 4-4.1 6.2-5.9 1-0.8 2.2 0 3.7-0.3 0.5-1.8 2.5-3.4 4.4-2.9 0.8 0.2 2.4-1.9 2.9-2.1 0.8-0.3 0.4 0.8 0.4 1.5 1.9-1.5 4.5-2.3 6.9-3.2" fill="#000000" fill-rule="nonzero" stroke="none" stroke-width="1" stroke-linecap="butt" stroke-linejoin="miter" stroke-miterlimit="10" stroke-dasharray="" stroke-dashoffset="0" font-family="none" font-weight="none" font-size="none" text-anchor="none" style="mix-blend-mode: normal" data-fill-palette-color="tertiary"></path></g><g transform="matrix(1,0,0,1,64,128.8056393367985)"><svg viewBox="0 0 192 102.38872132640304" height="102.38872132640304" width="192"><g><svg viewBox="0 0 192 102.38872132640304" height="102.38872132640304" width="192"><g><svg viewBox="0 0 192 102.38872132640304" height="102.38872132640304" width="192"><g transform="matrix(1,0,0,1,0,50.30596270571339)"><svg viewBox="0 0 192 52.08275862068966" height="52.08275862068966" width="192"><g id="textblocktransform"><svg viewBox="0 0 192 52.08275862068966" height="52.08275862068966" width="192" id="textblock"><g><svg viewBox="0 0 192 52.08275862068966" height="52.08275862068966" width="192"><g transform="matrix(1,0,0,1,0,0)"><svg width="192" viewBox="0.8 -34.95 130.48999999999998 35.400000000000006" height="52.08275862068966" data-palette-color="#e1e1dd"><path d="M10 0.45L10 0.45Q6.9 0.45 4.85-0.4 2.8-1.25 1.8-2.58 0.8-3.9 0.8-5.25L0.8-5.25Q0.8-7.15 2.5-8.63 4.2-10.1 7.1-10.1L7.1-10.1Q7.1-7.55 7.75-6.03 8.4-4.5 9.43-3.85 10.45-3.2 11.4-3.2L11.4-3.2Q12.55-3.2 13.33-3.88 14.1-4.55 14.1-5.55L14.1-5.55Q14.1-6.95 12.65-8 11.2-9.05 8.9-10.35L8.9-10.35Q7.75-11.05 6.4-11.98 5.05-12.9 4.1-14.23 3.15-15.55 3.15-17.4L3.15-17.4Q3.15-19.35 4.28-20.85 5.4-22.35 7.25-23.38 9.1-24.4 11.25-24.93 13.4-25.45 15.45-25.45L15.45-25.45Q19.3-25.45 21.25-23.9 23.2-22.35 23.2-20.6L23.2-20.6Q23.2-19.1 21.7-17.9 20.2-16.7 17.1-16.7L17.1-16.7Q17.15-19.25 16.05-20.43 14.95-21.6 13.7-21.6L13.7-21.6Q12.8-21.6 12.2-21.05 11.6-20.5 11.6-19.45L11.6-19.45Q11.6-18.25 12.38-17.38 13.15-16.5 14.33-15.83 15.5-15.15 16.75-14.55L16.75-14.55Q18.45-13.75 19.95-12.85 21.45-11.95 22.4-10.8 23.35-9.65 23.35-8L23.35-8Q23.35-5.75 21.53-3.83 19.7-1.9 16.65-0.73 13.6 0.45 10 0.45ZM31.25 0.2L31.25 0.2Q29.1 0.2 27.8-1.25 26.5-2.7 26.5-5.2L26.5-5.2Q26.5-6.55 26.85-8.72 27.2-10.9 27.72-13.53 28.25-16.15 28.75-18.88 29.25-21.6 29.6-24.15 29.95-26.7 29.95-28.65L29.95-28.65Q29.95-31.1 29.3-32.2L29.3-32.2 29.3-32.5Q30.4-33.75 31.7-34.35 33-34.95 34.25-34.95L34.25-34.95Q36.15-34.95 37.5-33.6 38.85-32.25 38.85-29.55L38.85-29.55Q38.85-28.1 38.45-26 38.05-23.9 37.5-21.6 36.95-19.3 36.4-17.3L36.4-17.3Q37.35-19.15 38.92-20.98 40.5-22.8 42.52-24 44.55-25.2 46.75-25.2L46.75-25.2Q49.25-25.2 50.12-23.65 51-22.1 51-19.8L51-19.8Q51-17.7 50.55-15.33 50.1-12.95 49.65-10.78 49.2-8.6 49.2-7.15L49.2-7.15Q49.2-5.05 50.45-5.05L50.45-5.05Q51-5.05 51.42-5.38 51.85-5.7 52.05-6.1L52.05-6.1 52.4-5.85Q52.4-3.9 51.45-2.55 50.5-1.2 49.02-0.5 47.55 0.2 46 0.2L46 0.2Q43.95 0.2 42.3-1.18 40.65-2.55 40.65-5.65L40.65-5.65Q40.65-7.4 41.12-9.45 41.6-11.5 42.05-13.43 42.5-15.35 42.5-16.65L42.5-16.65Q42.5-18.35 41.3-18.35L41.3-18.35Q40.2-18.35 38.9-17.25 37.6-16.15 36.62-14.5 35.65-12.85 35.35-11.25L35.35-11.25Q35.25-10.85 35.25-10.3L35.25-10.3Q35.25-9.05 35.62-7.9 36-6.75 36-5.2L36-5.2Q36-2.9 34.8-1.35 33.6 0.2 31.25 0.2ZM65.95 0.35L65.95 0.35Q62.2 0.35 59.75-1.15 57.3-2.65 56.12-5.13 54.95-7.6 54.95-10.4L54.95-10.4Q54.95-13.05 55.92-15.7 56.9-18.35 58.77-20.53 60.65-22.7 63.34-24.03 66.05-25.35 69.55-25.35L69.55-25.35Q73.3-25.35 75.72-23.83 78.15-22.3 79.32-19.8 80.5-17.3 80.5-14.45L80.5-14.45Q80.5-11.85 79.55-9.22 78.59-6.6 76.72-4.42 74.84-2.25 72.15-0.95 69.45 0.35 65.95 0.35ZM67.3-3.9L67.3-3.9Q68.65-3.9 69.55-5.3 70.45-6.7 70.9-8.88 71.34-11.05 71.34-13.3L71.34-13.3Q71.34-15.3 70.97-17.07 70.59-18.85 69.84-19.98 69.09-21.1 67.9-21.1L67.9-21.1Q66.59-21.1 65.67-19.7 64.75-18.3 64.3-16.15 63.84-14 63.84-11.7L63.84-11.7Q63.84-9.7 64.22-7.93 64.59-6.15 65.34-5.03 66.09-3.9 67.3-3.9ZM94.14 0.35L94.14 0.35Q90.49 0.35 88.09-1.13 85.69-2.6 84.49-5.03 83.29-7.45 83.29-10.25L83.29-10.25Q83.29-12.9 84.32-15.58 85.34-18.25 87.32-20.45 89.29-22.65 92.12-24 94.94-25.35 98.49-25.35L98.49-25.35Q102.89-25.35 104.92-23.38 106.94-21.4 106.94-18.6L106.94-18.6Q106.94-16.2 105.67-14.18 104.39-12.15 102.29-10.93 100.19-9.7 97.69-9.7L97.69-9.7Q96.39-9.7 95.04-10.1 93.69-10.5 92.39-11.35L92.39-11.35Q92.64-8.25 94.19-6.85 95.74-5.45 97.89-5.45L97.89-5.45Q99.39-5.45 100.89-6.03 102.39-6.6 103.67-7.53 104.94-8.45 105.64-9.5L105.64-9.5 105.99-9.25Q105.99-6.65 104.92-4.83 103.84-3 102.09-1.85 100.34-0.7 98.27-0.18 96.19 0.35 94.14 0.35ZM95.29-13.15L95.29-13.15Q96.89-13.15 97.89-14.08 98.89-15 99.39-16.25 99.89-17.5 99.89-18.45L99.89-18.45Q99.89-19.6 99.24-20.38 98.59-21.15 97.44-21.15L97.44-21.15Q96.54-21.15 95.47-20.5 94.39-19.85 93.54-18.28 92.69-16.7 92.44-13.9L92.44-13.9Q94.04-13.15 95.29-13.15ZM117.94 0.45L117.94 0.45Q114.84 0.45 112.79-0.4 110.74-1.25 109.74-2.58 108.74-3.9 108.74-5.25L108.74-5.25Q108.74-7.15 110.44-8.63 112.14-10.1 115.04-10.1L115.04-10.1Q115.04-7.55 115.69-6.03 116.34-4.5 117.37-3.85 118.39-3.2 119.34-3.2L119.34-3.2Q120.49-3.2 121.27-3.88 122.04-4.55 122.04-5.55L122.04-5.55Q122.04-6.95 120.59-8 119.14-9.05 116.84-10.35L116.84-10.35Q115.69-11.05 114.34-11.98 112.99-12.9 112.04-14.23 111.09-15.55 111.09-17.4L111.09-17.4Q111.09-19.35 112.22-20.85 113.34-22.35 115.19-23.38 117.04-24.4 119.19-24.93 121.34-25.45 123.39-25.45L123.39-25.45Q127.24-25.45 129.19-23.9 131.14-22.35 131.14-20.6L131.14-20.6Q131.14-19.1 129.64-17.9 128.14-16.7 125.04-16.7L125.04-16.7Q125.09-19.25 123.99-20.43 122.89-21.6 121.64-21.6L121.64-21.6Q120.74-21.6 120.14-21.05 119.54-20.5 119.54-19.45L119.54-19.45Q119.54-18.25 120.32-17.38 121.09-16.5 122.27-15.83 123.44-15.15 124.69-14.55L124.69-14.55Q126.39-13.75 127.89-12.85 129.39-11.95 130.34-10.8 131.29-9.65 131.29-8L131.29-8Q131.29-5.75 129.47-3.83 127.64-1.9 124.59-0.73 121.54 0.45 117.94 0.45Z" opacity="1" transform="matrix(1,0,0,1,0,0)" fill="#000000" class="wordmark-text-0" data-fill-palette-color="primary" id="text-0"></path></svg></g></svg></g></svg></g></svg></g><g transform="matrix(1,0,0,1,36.67199999999999,0)"><svg viewBox="0 0 118.65600000000002 42.70583823674787" height="42.70583823674787" width="118.65600000000002"><g><svg xmlns="http://www.w3.org/2000/svg" xml:space="preserve" version="1.0" viewBox="9.353447241566798 35.75416116522971 82.0045527584332 29.514505501436965" x="0" y="0" height="42.70583823674787" width="118.65600000000002" class="icon-icon-0" data-fill-palette-color="accent" id="icon-0"><path d="M15.538 44.208s0.165 5.249-0.104 9.019 1.077 4.578-1.615 4.578-5.115 1.614-4.308-3.231c0.808-4.846 2.935-11.577 2.935-11.577zM16.98 35.861c-1.862-0.719-2.66 2.335-3.296 4.846-0.307 1.212 1.481 0.674 5.25 2.289s35.809 9.154 39.175 9.962 5.341 1.216 6.191 1.075c1.213-0.198 1.963-1.142 1.29-1.682-0.673-0.539-1.044 0.215-2.501-0.485-1.705-0.821-2.289-1.601-2.827-3.89-0.538-2.288-5.151-0.922-7-1.75-1.849-0.826-34.889-9.827-36.282-10.365M11.53 59.823s74.985 0.145 77.408 0c1.009-0.06 2.118 0.304 1.312 0.707-0.807 0.403-1.583 0.774-2.795 1.853-1.211 1.076-2.827 0.808-4.577 1.211-1.748 0.403-0.809 1.479-2.288 1.616-1.479 0.132-62.463 0-62.463 0l-3.096-2.695s-1.62-1.613-2.56-2.151c-0.941-0.541-0.941-0.268-0.941-0.541" fill="#000000" data-fill-palette-color="accent"></path><path d="M91.358 54.915v-0.004l-0.021-4.005-10.41-0.303-5.452-1.48s-7.27-5.519-9.885-8.615c-0.71-0.844-0.751-0.808-0.751-0.808h-1.692s0.48 10.324 0.48 11.437c0 0.409 2.886 0.469 4.342 1.065 0.713 0.29 0.348 1.426 0.06 2.267-0.656 1.918-1.877 1.771-1.877 1.771s-1.986 0.287-7.91-1.061c-5.923-1.347-21.367-4.342-25.038-5.519-3.979-1.275-13.339-3.979-15.616-4.174 0 0-1.368 12.375 0 12.375 2.289 0 48.194-0.01 51.693 0 3.5 0.01 19.925 0 19.925 0 1.454-1.546 1.928-2.403 2.081-2.755l0.071 0.006z" fill="#000000" data-fill-palette-color="accent"></path></svg></g></svg></g><g></g></svg></g></svg></g></svg></g></svg></g><defs></defs></svg><rect width="320" height="360" fill="none" stroke="none" visibility="hidden"></rect></g></svg></g></svg>